<svg width="26" height="35" viewBox="0 0 26 35" fill="currentColor" xmlns="http://www.w3.org/2000/svg" aria-label="The Firebase Logo"><path d="M0.825639 22.2999L4.22976 0.656579C4.25498 0.495863 4.3304 0.34708 4.44535 0.231247C4.56031 0.115414 4.70899 0.0383866 4.87041 0.0110445C5.03182 -0.0162976 5.1978 0.00742818 5.3449 0.0788704C5.492 0.150313 5.61279 0.26586 5.69021 0.409191L9.3506 7.19249L0.825639 22.2999ZM25.0016 27.5515L21.7606 7.63216C21.7371 7.49149 21.675 7.35998 21.5811 7.25211C21.4872 7.14424 21.3652 7.0642 21.2285 7.02079C21.0917 6.97738 20.9456 6.97229 20.8061 7.00607C20.6667 7.03986 20.5393 7.11121 20.438 7.21228L0 27.5515L11.3101 33.8511C11.6589 34.0454 12.0519 34.1478 12.4518 34.1485C12.8518 34.1492 13.2452 34.0481 13.5946 33.8549L25.0016 27.5515ZM15.8112 10.1689L13.1926 5.21629C13.1264 5.09103 13.027 4.98615 12.9051 4.91297C12.7832 4.83979 12.6435 4.80112 12.5011 4.80112C12.3587 4.80112 12.219 4.83979 12.0971 4.91297C11.9752 4.98615 11.8758 5.09103 11.8095 5.21629L0.309395 25.5957L15.8112 10.1689Z"></path></svg>